<svg width="16" height="16" viewBox="0 0 16 16" fill="none" xmlns="http://www.w3.org/2000/svg">
<path d="M3.13281 3H1V1H4.86719L5.29541 4H15L15.0039 9.04956L4.27393 10.9976L3.13281 3Z" fill="white"/>
<path d="M15 13.5C15 14.3284 14.3286 15 13.5 15C12.6714 15 12 14.3284 12 13.5C12 12.6716 12.6714 12 13.5 12C14.3286 12 15 12.6716 15 13.5Z" fill="white"/>
<path d="M5.5 15C6.32861 15 7 14.3284 7 13.5C7 12.6716 6.32861 12 5.5 12C4.67139 12 4 12.6716 4 13.5C4 14.3284 4.67139 15 5.5 15Z" fill="white"/>
</svg>
