<svg width="16" height="16" viewBox="0 0 16 16" fill="none" xmlns="http://www.w3.org/2000/svg">
<rect width="10" height="12" fill="black" fill-opacity="0" transform="translate(3)"/>
<rect width="10" height="12" fill="black" fill-opacity="0" transform="translate(3)"/>
<path d="M8 8.25662C6.56207 8.25662 5.19694 8.048 4.15763 7.66585C3.74631 7.52422 3.35663 7.32474 3 7.07323V8.48554C3 9.49446 5.23881 10.3132 8 10.3132C10.7612 10.3132 13 9.49538 13 8.48554V7.07323C12.6426 7.32363 12.2531 7.52332 11.8424 7.66677C10.8021 8.04708 9.43793 8.25477 8 8.25477V8.25662ZM8 11.9471C6.56207 11.9471 5.19694 11.7385 4.15763 11.3563C3.69712 11.1883 3.30852 10.9908 3 10.7655V12.1723C3 13.1812 5.23881 14 8 14C10.7612 14 13 13.1812 13 12.1723V10.7655C12.6424 11.015 12.253 11.2137 11.8424 11.3563C10.8021 11.7394 9.43793 11.9471 8 11.9471V11.9471ZM8 2C5.2379 2 3 2.81877 3 3.82769V4.80154C3 5.81138 5.23881 6.62738 8 6.62738C10.7612 6.62738 13 5.81231 13 4.80154V3.82769C13 2.81877 10.7612 2 8 2Z" fill="white"/>
</svg>
