<?xml version="1.0" encoding="UTF-8"?>
<svg xmlns="http://www.w3.org/2000/svg" xmlns:xlink="http://www.w3.org/1999/xlink" width="64pt" height="64pt" viewBox="0 0 64 64" version="1.1">
<g id="surface4548341">
<path style=" stroke:none;fill-rule:nonzero;fill:rgb(80%,20%,24.705882%);fill-opacity:1;" d="M 38.050781 7.636719 C 37.664062 7.636719 37.273438 7.773438 37 8.050781 C 36.699219 8.351562 36.550781 8.699219 36.550781 9.097656 C 36.550781 9.5 36.699219 9.902344 37 10.148438 C 37.300781 10.449219 37.648438 10.597656 38.050781 10.597656 C 38.449219 10.597656 38.851562 10.449219 39.097656 10.148438 C 39.398438 9.851562 39.550781 9.5 39.550781 9.097656 C 39.550781 8.699219 39.398438 8.300781 39.097656 8.050781 C 38.824219 7.773438 38.4375 7.636719 38.050781 7.636719 Z M 50.460938 8.445312 C 50.265625 8.449219 50.070312 8.519531 49.902344 8.652344 C 49.199219 9.25 48.75 10.050781 48.550781 10.949219 L 47.902344 14.75 C 47.800781 15.199219 47.5 15.5 47.050781 15.601562 L 45.5 15.902344 C 45.050781 16 44.75 16.351562 44.648438 16.75 L 44.449219 17.851562 L 47.25 18.351562 L 48 18.5 L 49.699219 18.800781 L 50.449219 18.949219 L 53.25 19.449219 L 53.449219 18.449219 C 53.5 18.050781 53.351562 17.601562 53 17.351562 L 51.597656 16.449219 C 51.25 16.199219 51.050781 15.800781 51.148438 15.351562 L 51.75 11.5 C 51.898438 10.601562 51.75 9.699219 51.300781 8.902344 C 51.113281 8.589844 50.789062 8.429688 50.460938 8.445312 Z M 27.433594 16.46875 C 19.851562 16.609375 12.554688 20.5625 8.550781 27.550781 C 4.550781 34.5 4.699219 42.75 8.351562 49.351562 C 8.300781 49.351562 8.25 49.449219 8.25 49.550781 C 7.25 54.25 8 57.75 10.351562 59.75 C 11.601562 60.800781 13.199219 61.300781 15.050781 61.300781 C 21.101562 61.300781 29.800781 55.851562 37.597656 46.699219 C 46.800781 35.949219 49.351562 23 49.449219 22.449219 C 49.601562 21.648438 49.050781 20.851562 48.25 20.699219 C 47.449219 20.550781 46.648438 21.101562 46.5 21.902344 C 46.5 22 44 34.601562 35.300781 44.800781 C 25.800781 55.949219 15.699219 60.351562 12.25 57.449219 C 11.199219 56.550781 10.699219 55 10.800781 52.902344 C 12 54.300781 13.351562 55.601562 14.949219 56.75 C 15.199219 56.949219 15.5 57.050781 15.851562 57.050781 C 16.300781 57.050781 16.800781 56.851562 17.050781 56.449219 C 17.550781 55.800781 17.398438 54.851562 16.699219 54.351562 C 8.550781 48.5 6.199219 37.601562 11.152344 29 C 16.449219 19.800781 28.351562 16.699219 37.652344 22.050781 C 39.25 22.949219 40.699219 24.101562 41.949219 25.402344 C 42.550781 26 43.5 26 44.050781 25.449219 C 44.648438 24.851562 44.648438 23.898438 44.101562 23.351562 C 42.648438 21.851562 41 20.550781 39.152344 19.5 C 35.457031 17.367188 31.40625 16.394531 27.433594 16.46875 Z M 58.300781 24.1875 C 57.914062 24.1875 57.523438 24.324219 57.25 24.597656 C 56.949219 24.898438 56.800781 25.25 56.800781 25.648438 C 56.800781 26.050781 56.949219 26.449219 57.25 26.699219 C 57.550781 27 57.898438 27.148438 58.300781 27.148438 C 58.699219 27.148438 59.101562 27 59.351562 26.699219 C 59.601562 26.449219 59.800781 26.050781 59.800781 25.648438 C 59.800781 25.25 59.648438 24.847656 59.351562 24.597656 C 59.074219 24.324219 58.6875 24.1875 58.300781 24.1875 Z M 23.351562 25.5 C 22.246094 25.5 21.351562 26.394531 21.351562 27.5 C 21.351562 28.605469 22.246094 29.5 23.351562 29.5 C 24.453125 29.5 25.351562 28.605469 25.351562 27.5 C 25.351562 26.394531 24.453125 25.5 23.351562 25.5 Z M 39.800781 28.910156 C 39.699219 28.910156 39.601562 28.925781 39.5 28.949219 C 39.449219 28.949219 39.351562 29 39.300781 29 C 36.898438 29.648438 35.5 32.101562 36.097656 34.5 C 36.300781 35.148438 36.898438 35.597656 37.550781 35.597656 C 37.699219 35.597656 37.800781 35.601562 37.949219 35.550781 C 38.75 35.351562 39.199219 34.5 39 33.699219 C 38.75 32.898438 39.25 32.101562 40.050781 31.851562 L 40.148438 31.851562 C 40.949219 31.699219 41.449219 30.898438 41.300781 30.101562 C 41.167969 29.398438 40.5 28.890625 39.800781 28.910156 Z M 48.296875 32.457031 C 48.199219 32.460938 48.101562 32.476562 48 32.5 C 47.199219 32.699219 46.699219 33.5 46.902344 34.300781 C 48.101562 39.148438 47.402344 44.148438 44.902344 48.449219 C 41.402344 54.550781 34.800781 58.199219 27.699219 58.050781 C 26.851562 58.050781 26.199219 58.699219 26.152344 59.5 C 26.152344 60.351562 26.800781 61 27.601562 61.050781 L 28.199219 61.050781 C 36.199219 61.050781 43.550781 56.851562 47.5 49.949219 C 50.351562 45 51.199219 39.199219 49.800781 33.597656 C 49.625 32.898438 48.992188 32.429688 48.296875 32.457031 Z M 25 39.699219 C 22.929688 39.699219 21.25 41.378906 21.25 43.449219 C 21.25 45.519531 22.929688 47.199219 25 47.199219 C 27.070312 47.199219 28.75 45.519531 28.75 43.449219 C 28.75 41.378906 27.070312 39.699219 25 39.699219 Z M 25 39.699219 "/>
</g>
</svg>
