<?xml version="1.0" encoding="UTF-8"?>
<svg xmlns="http://www.w3.org/2000/svg" xmlns:xlink="http://www.w3.org/1999/xlink" width="64pt" height="64pt" viewBox="0 0 64 64" version="1.1">
<g id="surface4550319">
<path style=" stroke:none;fill-rule:nonzero;fill:rgb(80%,20%,24.705882%);fill-opacity:1;" d="M 48.148438 2.949219 C 43.75 2.949219 40.148438 6.550781 40.148438 10.949219 L 40.148438 12.648438 C 40.148438 13.5 40.800781 14.148438 41.648438 14.148438 C 46.050781 14.101562 49.648438 10.550781 49.648438 6.097656 L 49.648438 4.449219 C 49.648438 3.601562 49 2.949219 48.148438 2.949219 Z M 46.648438 6.199219 C 46.648438 8.398438 45.148438 10.25 43.148438 10.902344 C 43.148438 8.699219 44.648438 6.800781 46.648438 6.199219 Z M 32.550781 8.597656 C 32.007812 8.601562 31.484375 8.816406 31.101562 9.199219 C 30.714844 9.585938 30.5 10.105469 30.5 10.652344 C 30.5 11.78125 31.417969 12.699219 32.550781 12.699219 C 33.683594 12.699219 34.597656 11.78125 34.597656 10.652344 C 34.601562 10.105469 34.382812 9.585938 34 9.199219 C 33.613281 8.816406 33.09375 8.601562 32.550781 8.597656 Z M 17.097656 11.050781 C 16.25 11.050781 15.597656 11.699219 15.597656 12.550781 L 15.597656 15.5 C 15.597656 22.601562 21.351562 28.351562 28.449219 28.351562 C 29.300781 28.351562 29.949219 27.699219 29.949219 26.851562 L 29.949219 23.902344 C 29.949219 16.800781 24.199219 11.050781 17.097656 11.050781 Z M 18.597656 14.148438 C 23.351562 14.851562 26.949219 25.25 26.949219 25.25 C 22.25 24.5 18.597656 20.398438 18.597656 15.5 Z M 38.628906 14.21875 C 38.25 14.210938 37.875 14.351562 37.597656 14.648438 C 34.699219 17.550781 33.097656 21.449219 33.097656 25.597656 L 33.097656 41.851562 C 33.050781 42.601562 33.75 43.25 34.550781 43.25 C 35.398438 43.25 36.050781 42.601562 36.050781 41.75 L 36.050781 25.550781 C 36.050781 22.199219 37.351562 19.101562 39.699219 16.75 C 40.300781 16.148438 40.300781 15.199219 39.699219 14.652344 C 39.398438 14.375 39.011719 14.226562 38.632812 14.21875 Z M 57.402344 16.050781 C 47.601562 16.050781 39.652344 24 39.652344 33.800781 L 39.652344 38 C 39.652344 38.851562 40.300781 39.5 41.152344 39.5 C 50.949219 39.5 58.902344 31.550781 58.902344 21.75 L 58.902344 17.550781 C 58.902344 16.699219 58.199219 16.050781 57.402344 16.050781 Z M 41.449219 18 C 40.621094 18 39.949219 18.671875 39.949219 19.5 C 39.949219 20.328125 40.621094 21 41.449219 21 C 42.277344 21 42.949219 20.328125 42.949219 19.5 C 42.949219 18.671875 42.277344 18 41.449219 18 Z M 55.902344 19.148438 C 55.902344 19.101562 50.101562 35.699219 42.652344 36.449219 L 42.652344 33.800781 C 42.652344 26.199219 48.449219 19.898438 55.902344 19.148438 Z M 26.949219 32.902344 C 25.265625 32.902344 23.902344 34.265625 23.902344 35.949219 C 23.902344 37.632812 25.265625 39 26.949219 39 C 28.632812 39 30 37.632812 30 35.949219 C 30 34.265625 28.632812 32.902344 26.949219 32.902344 Z M 7.800781 39.800781 C 6.949219 39.800781 6.300781 40.449219 6.300781 41.300781 C 6.300781 42.148438 6.949219 42.800781 7.800781 42.800781 L 14.949219 42.800781 C 15 42.800781 15.050781 42.847656 15.050781 42.847656 L 15.050781 55.898438 L 7.800781 55.898438 C 6.949219 55.898438 6.300781 56.550781 6.300781 57.398438 C 6.300781 58.25 6.949219 58.898438 7.800781 58.898438 L 15.050781 58.898438 C 16.199219 58.898438 17.199219 58.25 17.699219 57.347656 L 30.5 61.347656 C 30.648438 61.398438 32.648438 61.949219 35.050781 61.949219 C 36.351562 61.949219 37.699219 61.800781 38.949219 61.300781 C 41.601562 60.25 51.550781 55 55.699219 52.800781 C 57.148438 52.050781 58.25 50.25 57.449219 48.449219 C 57 47.351562 55.699219 45.601562 52.449219 46.550781 L 52.402344 46.550781 L 46.550781 48.5 C 45.75 48.75 45.351562 49.601562 45.601562 50.398438 C 45.851562 51.199219 46.699219 51.597656 47.5 51.347656 L 53.25 49.398438 C 54.449219 49.050781 54.550781 49.300781 54.652344 49.597656 C 54.75 49.847656 54.351562 50.148438 54.300781 50.148438 C 47.648438 53.648438 39.851562 57.699219 37.800781 58.550781 C 35.199219 59.601562 31.351562 58.5 31.351562 58.5 L 21 55.300781 L 21 44.800781 L 22.601562 44.800781 C 24.5 44.800781 29.851562 45.398438 31.800781 48.199219 C 32.101562 48.601562 32.550781 48.847656 33.050781 48.847656 L 40.351562 48.847656 C 41 48.847656 41.601562 49.300781 41.652344 49.898438 L 41.652344 50.25 C 41.652344 50.300781 41.648438 50.347656 41.601562 50.347656 C 41.601562 50.398438 41.601562 50.398438 41.550781 50.449219 C 41.351562 50.851562 40.949219 51.148438 40.449219 51.148438 L 29.902344 51.148438 C 29.050781 51.148438 28.402344 51.800781 28.402344 52.648438 C 28.402344 53.5 29.050781 54.148438 29.902344 54.148438 L 40.5 54.148438 C 41.949219 54.148438 43.25 53.398438 44 52.25 L 44.050781 52.199219 C 44.101562 52.148438 44.101562 52.101562 44.152344 52.050781 C 44.152344 52 44.199219 51.949219 44.199219 51.949219 C 44.25 51.851562 44.300781 51.75 44.351562 51.597656 L 44.351562 51.550781 C 44.398438 51.449219 44.449219 51.351562 44.449219 51.199219 L 44.449219 51.097656 C 44.5 51 44.5 50.898438 44.550781 50.800781 L 44.550781 50.699219 C 44.550781 50.601562 44.601562 50.5 44.601562 50.398438 L 44.601562 50.300781 C 44.601562 50.050781 44.648438 49.800781 44.601562 49.550781 C 44.398438 47.398438 42.550781 45.75 40.300781 45.75 L 33.800781 45.75 C 30.300781 41.75 22.949219 41.699219 22.652344 41.699219 L 17.800781 41.699219 C 17.351562 40.601562 16.25 39.800781 14.949219 39.800781 Z M 7.800781 39.800781 "/>
</g>
</svg>
