<?xml version="1.0" encoding="UTF-8"?>
<svg xmlns="http://www.w3.org/2000/svg" xmlns:xlink="http://www.w3.org/1999/xlink" width="64pt" height="64pt" viewBox="0 0 64 64" version="1.1">
<g id="surface4548188">
<path style=" stroke:none;fill-rule:nonzero;fill:rgb(80%,20%,24.705882%);fill-opacity:1;" d="M 15.5 16.300781 C 14.949219 16.300781 14.449219 16.597656 14.199219 17.097656 C 13.949219 17.597656 13.949219 18.199219 14.25 18.648438 C 15.601562 20.648438 17.199219 22.5 19 24.050781 L 19 34 C 19 41.148438 24.851562 47 32 47 C 39.148438 47 45 41.148438 45 34 L 45 28.402344 C 44.648438 21.652344 39.101562 16.300781 32.300781 16.300781 Z M 22 26.402344 C 26.601562 29.5 32 31.152344 37.597656 31.152344 C 39.050781 31.152344 40.550781 31.050781 42 30.800781 L 42 34 C 42 39.5 37.5 44 32 44 C 26.5 44 22 39.5 22 34 Z M 15.652344 27.691406 C 15.550781 27.699219 15.449219 27.71875 15.351562 27.75 C 10.851562 28.949219 7.75 33 7.75 37.652344 C 7.75 43.402344 12.351562 47.949219 18 47.949219 C 19.300781 47.949219 20.601562 47.699219 21.800781 47.199219 C 22.550781 46.898438 22.949219 46 22.652344 45.25 C 22.351562 44.5 21.449219 44.101562 20.699219 44.402344 C 19.851562 44.75 18.949219 44.902344 18 44.902344 C 14 44.902344 10.75 41.652344 10.75 37.652344 C 10.75 34.351562 12.949219 31.5 16.152344 30.652344 C 16.949219 30.449219 17.449219 29.601562 17.199219 28.800781 C 17.023438 28.101562 16.351562 27.628906 15.652344 27.691406 Z M 48.101562 27.757812 C 47.410156 27.730469 46.773438 28.199219 46.597656 28.902344 C 46.398438 29.699219 46.898438 30.5 47.699219 30.699219 C 51 31.449219 53.25 34.351562 53.25 37.75 C 53.25 41.699219 50 44.949219 46 44.949219 C 45.050781 44.949219 44.148438 44.800781 43.300781 44.449219 C 42.550781 44.148438 41.648438 44.5 41.347656 45.300781 C 41.050781 46.050781 41.398438 46.949219 42.199219 47.25 C 43.398438 47.75 44.699219 48 46 48 C 51.648438 48 56.25 43.398438 56.25 37.75 C 56.25 33 53 28.898438 48.398438 27.800781 C 48.300781 27.773438 48.199219 27.761719 48.101562 27.757812 Z M 32 49.699219 C 23.800781 49.699219 16.199219 54.148438 12.148438 61.25 C 11.75 61.949219 12 62.898438 12.699219 63.300781 C 12.949219 63.449219 13.199219 63.5 13.449219 63.5 C 13.949219 63.5 14.5 63.25 14.75 62.75 C 18.25 56.550781 24.851562 52.699219 32 52.699219 C 39.101562 52.699219 45.699219 56.550781 49.25 62.75 C 49.648438 63.449219 50.601562 63.699219 51.300781 63.300781 C 52 62.898438 52.25 62 51.851562 61.25 C 47.800781 54.148438 40.199219 49.699219 32 49.699219 Z M 12.902344 51.753906 C 12.800781 51.761719 12.699219 51.773438 12.597656 51.800781 C 7.5 53.25 3.101562 56.699219 0.5 61.25 C 0.101562 61.949219 0.351562 62.898438 1.050781 63.300781 C 1.300781 63.449219 1.550781 63.5 1.800781 63.5 C 2.300781 63.5 2.851562 63.25 3.101562 62.75 C 5.300781 58.851562 9.050781 55.898438 13.402344 54.699219 C 14.199219 54.5 14.648438 53.648438 14.449219 52.847656 C 14.273438 52.148438 13.601562 51.71875 12.902344 51.753906 Z M 51.097656 51.753906 C 50.398438 51.71875 49.726562 52.148438 49.550781 52.847656 C 49.351562 53.648438 49.800781 54.5 50.597656 54.699219 C 54.898438 55.898438 58.648438 58.851562 60.902344 62.75 C 61.199219 63.25 61.699219 63.5 62.199219 63.5 C 62.449219 63.5 62.699219 63.449219 62.949219 63.300781 C 63.648438 62.898438 63.898438 62 63.5 61.25 C 60.898438 56.648438 56.5 53.199219 51.402344 51.800781 C 51.300781 51.773438 51.199219 51.761719 51.097656 51.753906 Z M 51.097656 51.753906 "/>
</g>
</svg>
