<?xml version="1.0" encoding="UTF-8"?>
<svg xmlns="http://www.w3.org/2000/svg" xmlns:xlink="http://www.w3.org/1999/xlink" width="16pt" height="16pt" viewBox="0 0 16 16" version="1.1">
<g id="surface3568989">
<path style=" stroke:none;fill-rule:nonzero;fill:rgb(100%,100%,100%);fill-opacity:1;" d="M 12.5 1 C 11.125 1 10 2.125 10 3.5 C 10 3.671875 10.019531 3.835938 10.050781 4 L 5.519531 6.039062 C 5.0625 5.414062 4.328125 5 3.5 5 C 2.125 5 1 6.125 1 7.5 C 1 8.875 2.125 10 3.5 10 C 4.332031 10 5.074219 9.582031 5.527344 8.949219 L 10.0625 10.964844 C 10.023438 11.136719 10 11.316406 10 11.5 C 10 12.875 11.125 14 12.5 14 C 13.875 14 15 12.875 15 11.5 C 15 10.125 13.875 9 12.5 9 C 11.667969 9 10.925781 9.417969 10.472656 10.050781 L 5.9375 8.039062 C 5.976562 7.863281 6 7.683594 6 7.5 C 6 7.3125 5.976562 7.128906 5.9375 6.953125 L 10.445312 4.914062 C 10.898438 5.570312 11.652344 6 12.5 6 C 13.875 6 15 4.875 15 3.5 C 15 2.125 13.875 1 12.5 1 Z M 12.5 2 C 13.335938 2 14 2.664062 14 3.5 C 14 4.335938 13.335938 5 12.5 5 C 11.664062 5 11 4.335938 11 3.5 C 11 2.664062 11.664062 2 12.5 2 Z M 3.5 6 C 4.335938 6 5 6.664062 5 7.5 C 5 8.335938 4.335938 9 3.5 9 C 2.664062 9 2 8.335938 2 7.5 C 2 6.664062 2.664062 6 3.5 6 Z M 12.5 10 C 13.335938 10 14 10.664062 14 11.5 C 14 12.335938 13.335938 13 12.5 13 C 11.664062 13 11 12.335938 11 11.5 C 11 10.664062 11.664062 10 12.5 10 Z M 12.5 10 "/>
</g>
</svg>
