<?xml version="1.0" encoding="UTF-8"?>
<svg xmlns="http://www.w3.org/2000/svg" xmlns:xlink="http://www.w3.org/1999/xlink" width="64pt" height="64pt" viewBox="0 0 64 64" version="1.1">
<g id="surface4549115">
<path style=" stroke:none;fill-rule:nonzero;fill:rgb(80%,20%,24.705882%);fill-opacity:1;" d="M 32.804688 5.539062 C 28.265625 5.519531 23.699219 6.3125 19.449219 8 C 11.601562 11.148438 5.550781 16.949219 2.902344 23.949219 C 0.601562 30 1 36.550781 3.949219 42.402344 C 9 52.351562 19.601562 58.300781 32.300781 58.300781 C 39.25 58.300781 45.101562 53.398438 46.199219 46.699219 C 46.351562 45.898438 45.800781 45.101562 44.949219 44.949219 C 44.148438 44.800781 43.351562 45.351562 43.199219 46.199219 C 42.300781 51.5 37.699219 55.300781 32.25 55.300781 C 20.699219 55.300781 11.101562 49.949219 6.550781 41.050781 C 4.050781 35.949219 3.699219 30.25 5.699219 25 C 8.050781 18.800781 13.449219 13.601562 20.550781 10.800781 C 33 5.851562 48.398438 9.199219 56.351562 18.601562 L 56.800781 19.152344 C 57.851562 20.351562 58.050781 20.601562 58.800781 22.152344 C 60.449219 25.601562 59.25 29.699219 56 31.75 C 54.800781 32.5 53.851562 32.851562 52.902344 32.851562 L 49.800781 32.851562 C 47.25 32.851562 44.949219 34.351562 43.851562 36.652344 C 43.5 37.402344 43.851562 38.300781 44.601562 38.652344 C 45.351562 39 46.25 38.652344 46.601562 37.902344 C 47.148438 36.652344 48.398438 35.851562 49.800781 35.851562 L 52.902344 35.851562 C 54.851562 35.851562 56.398438 35 57.550781 34.300781 C 62.199219 31.449219 63.851562 25.699219 61.550781 20.851562 C 60.601562 18.949219 60.199219 18.449219 59.097656 17.199219 L 58.648438 16.652344 C 52.632812 9.570312 42.789062 5.582031 32.804688 5.539062 Z M 37.417969 11.609375 C 36.28125 11.566406 35.15625 11.867188 34.191406 12.472656 C 31.550781 14.128906 30.75 17.617188 32.410156 20.257812 C 33.207031 21.527344 34.472656 22.429688 35.933594 22.765625 C 37.394531 23.097656 38.929688 22.839844 40.199219 22.042969 C 42.839844 20.382812 43.640625 16.898438 41.980469 14.253906 C 40.992188 12.675781 39.28125 11.683594 37.417969 11.609375 Z M 23.363281 13.816406 C 22.226562 13.769531 21.101562 14.070312 20.136719 14.675781 C 17.492188 16.332031 16.695312 19.816406 18.351562 22.460938 C 19.148438 23.730469 20.414062 24.632812 21.875 24.96875 C 23.335938 25.304688 24.871094 25.042969 26.140625 24.25 C 28.785156 22.589844 29.582031 19.105469 27.925781 16.460938 C 26.933594 14.878906 25.226562 13.890625 23.363281 13.816406 Z M 49.921875 18.113281 C 48.78125 18.066406 47.65625 18.367188 46.691406 18.972656 C 44.050781 20.628906 43.25 24.117188 44.90625 26.761719 C 46.566406 29.402344 50.050781 30.203125 52.695312 28.546875 C 55.339844 26.886719 56.140625 23.402344 54.480469 20.757812 C 53.492188 19.175781 51.785156 18.1875 49.921875 18.113281 Z M 13.925781 24.867188 C 12.789062 24.820312 11.664062 25.121094 10.699219 25.726562 C 8.054688 27.382812 7.257812 30.867188 8.914062 33.511719 C 10.570312 36.15625 14.058594 36.957031 16.703125 35.296875 C 19.347656 33.640625 20.144531 30.15625 18.488281 27.511719 C 17.496094 25.929688 15.789062 24.941406 13.925781 24.867188 Z M 31.496094 35.789062 C 30 35.734375 28.46875 36.105469 27.097656 36.949219 C 23.5 39.199219 22.402344 44 24.648438 47.597656 C 25.75 49.351562 27.449219 50.550781 29.5 51.050781 C 30.101562 51.199219 30.648438 51.25 31.25 51.25 C 32.699219 51.25 34.101562 50.851562 35.351562 50.050781 C 38.949219 47.800781 40.050781 43 37.800781 39.402344 C 36.394531 37.152344 33.992188 35.875 31.496094 35.789062 Z M 31.199219 38.800781 C 32.800781 38.800781 34.351562 39.601562 35.25 41 C 36.648438 43.199219 35.949219 46.148438 33.75 47.550781 C 32.699219 48.199219 31.402344 48.449219 30.152344 48.148438 C 28.902344 47.851562 27.851562 47.101562 27.199219 46.050781 C 25.800781 43.851562 26.5 40.898438 28.699219 39.5 C 29.5 39 30.351562 38.800781 31.199219 38.800781 Z M 31.199219 38.800781 "/>
</g>
</svg>
