<svg fill="#000000" xmlns="http://www.w3.org/2000/svg" viewBox="0 0 128 128" width="64px" height="64px"><path d="M 9 11 C 7.3 11 6 12.3 6 14 C 6 15.7 7.3 17 9 17 L 16 17 L 16 91 C 16 96.5 20.5 101 26 101 L 76 101 C 77.7 101 79 99.7 79 98 C 79 96.3 77.7 95 76 95 L 26 95 C 23.8 95 22 93.2 22 91 L 22 27 L 109.30078 27 C 110.60078 27 111.8 27.599219 112.5 28.699219 C 113.3 29.799219 113.5 31.100781 113 32.300781 L 99.300781 73.5 C 97.800781 78 93.700391 81 88.900391 81 L 33 81 C 31.3 81 30 82.3 30 84 C 30 85.7 31.3 87 33 87 L 88.900391 87 C 96.200391 87 102.7 82.300391 105 75.400391 L 118.69922 34.199219 C 119.69922 31.099219 119.20078 27.799219 117.30078 25.199219 C 115.40078 22.599219 112.39922 21 109.19922 21 L 22 21 L 22 14 C 22 12.3 20.7 11 19 11 L 9 11 z M 26 107 C 20.5 107 16 111.5 16 117 C 16 122.5 20.5 127 26 127 C 31.5 127 36 122.5 36 117 C 36 111.5 31.5 107 26 107 z M 76 107 C 70.5 107 66 111.5 66 117 C 66 122.5 70.5 127 76 127 C 81.5 127 86 122.5 86 117 C 86 111.5 81.5 107 76 107 z M 26 113 C 28.2 113 30 114.8 30 117 C 30 119.2 28.2 121 26 121 C 23.8 121 22 119.2 22 117 C 22 114.8 23.8 113 26 113 z M 76 113 C 78.2 113 80 114.8 80 117 C 80 119.2 78.2 121 76 121 C 73.8 121 72 119.2 72 117 C 72 114.8 73.8 113 76 113 z"/></svg>