<?xml version="1.0" encoding="utf-8"?>
<!-- Generator: Adobe Illustrator 23.0.4, SVG Export Plug-In . SVG Version: 6.00 Build 0)  -->
<svg version="1.1" id="Layer_1" xmlns="http://www.w3.org/2000/svg" xmlns:xlink="http://www.w3.org/1999/xlink" x="0px" y="0px"
	 viewBox="0 0 119.4 119.4" style="enable-background:new 0 0 119.4 119.4;" xml:space="preserve">
<style type="text/css">
	.st0{clip-path:url(#SVGID_3_);}
	.st1{fill:#FFFFFF;}
	.st2{fill:url(#SVGID_4_);}
	.st3{fill:url(#SVGID_5_);}
	.st4{opacity:0.8;}
	.st5{fill:url(#SVGID_6_);}
	.st6{fill:url(#SVGID_7_);}
	.st7{fill:url(#SVGID_8_);}
	.st8{fill:url(#SVGID_9_);}
	.st9{fill:url(#SVGID_10_);}
	.st10{fill:url(#SVGID_11_);}
	.st11{opacity:0.6;}
	.st12{fill:url(#SVGID_12_);}
</style>
<g>
	<g>
		<defs>
			<rect id="SVGID_1_" x="-249.9" y="-339.8" width="468" height="288"/>
		</defs>
		<linearGradient id="SVGID_2_" gradientUnits="userSpaceOnUse" x1="167.0962" y1="-378.7566" x2="-213.0621" y2="1.4018">
			<stop  offset="0" style="stop-color:#0043FF"/>
			<stop  offset="0.2187" style="stop-color:#472FB4"/>
			<stop  offset="0.4283" style="stop-color:#841E74"/>
			<stop  offset="0.6171" style="stop-color:#B41142"/>
			<stop  offset="0.7812" style="stop-color:#D6081E"/>
			<stop  offset="0.9144" style="stop-color:#EB0208"/>
			<stop  offset="1" style="stop-color:#F30000"/>
		</linearGradient>
		<use xlink:href="#SVGID_1_"  style="overflow:visible;fill:url(#SVGID_2_);"/>
		<clipPath id="SVGID_3_">
			<use xlink:href="#SVGID_1_"  style="overflow:visible;"/>
		</clipPath>
		<g class="st0">
			
				<image style="overflow:visible;" width="1147" height="1146" xlink:href="DB4CB1514AD9012F.png"  transform="matrix(0.24 0 0 0.24 -204.8586 -358.4002)">
			</image>
		</g>
		<g class="st0">
			
				<image style="overflow:visible;" width="611" height="720" xlink:href="DB4CB1514AD9012D.png"  transform="matrix(0.24 0 0 0.24 -173.1786 -293.6002)">
			</image>
		</g>
		<g class="st0">
			
				<image style="overflow:visible;" width="375" height="708" xlink:href="DB4CB1514AD90133.png"  transform="matrix(0.24 0 0 0.24 68.0214 -310.4002)">
			</image>
		</g>
		<g class="st0">
			<g>
				<g>
					<path class="st1" d="M111.1-188.6H100c-0.3,0-0.5-0.2-0.5-0.5c0-0.3,0.2-0.5,0.5-0.5h11.1c0.3,0,0.5,0.2,0.5,0.5
						C111.6-188.9,111.3-188.6,111.1-188.6z"/>
				</g>
				<g>
					<path class="st1" d="M111.1-178.3H100c-0.3,0-0.5-0.2-0.5-0.5c0-0.3,0.2-0.5,0.5-0.5h11.1c0.3,0,0.5,0.2,0.5,0.5
						C111.6-178.5,111.3-178.3,111.1-178.3z"/>
				</g>
				<g>
					<path class="st1" d="M111.1-167.9H100c-0.3,0-0.5-0.2-0.5-0.5c0-0.3,0.2-0.5,0.5-0.5h11.1c0.3,0,0.5,0.2,0.5,0.5
						C111.6-168.2,111.3-167.9,111.1-167.9z"/>
				</g>
				<g>
					<path class="st1" d="M111.1-157.6H100c-0.3,0-0.5-0.2-0.5-0.5c0-0.3,0.2-0.5,0.5-0.5h11.1c0.3,0,0.5,0.2,0.5,0.5
						C111.6-157.8,111.3-157.6,111.1-157.6z"/>
				</g>
				<g>
					<path class="st1" d="M111.1-147.2H100c-0.3,0-0.5-0.2-0.5-0.5c0-0.3,0.2-0.5,0.5-0.5h11.1c0.3,0,0.5,0.2,0.5,0.5
						C111.6-147.4,111.3-147.2,111.1-147.2z"/>
				</g>
			</g>
			<g>
				<polygon class="st1" points="-112.7,-217.1 -116.1,-220.5 -119.6,-217.1 -121.7,-219.2 -116.1,-224.8 -110.6,-219.2 				"/>
			</g>
			<g>
				<linearGradient id="SVGID_4_" gradientUnits="userSpaceOnUse" x1="94.7358" y1="-284.9691" x2="211.7358" y2="-284.9691">
					<stop  offset="0" style="stop-color:#918D60"/>
					<stop  offset="0.3772" style="stop-color:#555338"/>
					<stop  offset="0.799" style="stop-color:#181710"/>
					<stop  offset="1" style="stop-color:#000000"/>
				</linearGradient>
				<path class="st2" d="M95.2-226.5c-0.1,0-0.3,0-0.4-0.1c-0.2-0.2-0.2-0.5,0-0.7l116-116c0.2-0.2,0.5-0.2,0.7,0
					c0.2,0.2,0.2,0.5,0,0.7l-116,116C95.5-226.5,95.4-226.5,95.2-226.5z"/>
			</g>
			<g>
				<path class="st1" d="M-81.8-95.8c-0.1,0-0.2,0-0.3-0.1c-0.1-0.1-0.1-0.4,0-0.5l32.7-32.7c0.1-0.1,0.4-0.1,0.5,0
					c0.1,0.1,0.1,0.4,0,0.5l-32.7,32.7C-81.6-95.8-81.7-95.8-81.8-95.8z"/>
			</g>
			<g>
				<linearGradient id="SVGID_5_" gradientUnits="userSpaceOnUse" x1="-263.2642" y1="-96.9693" x2="-143.5977" y2="-96.9693">
					<stop  offset="0" style="stop-color:#918D60"/>
					<stop  offset="0.3772" style="stop-color:#555338"/>
					<stop  offset="0.799" style="stop-color:#181710"/>
					<stop  offset="1" style="stop-color:#000000"/>
				</linearGradient>
				<path class="st3" d="M-262.8-37.1c-0.1,0-0.3,0-0.4-0.1c-0.2-0.2-0.2-0.5,0-0.7l118.7-118.7c0.2-0.2,0.5-0.2,0.7,0
					s0.2,0.5,0,0.7L-262.4-37.3C-262.5-37.2-262.6-37.1-262.8-37.1z"/>
			</g>
			<g>
				<path class="st1" d="M9.2-287.9c-0.1,0-0.2,0-0.3-0.1c-0.1-0.1-0.1-0.4,0-0.5l39.3-39.3c0.1-0.1,0.4-0.1,0.5,0
					c0.1,0.1,0.1,0.4,0,0.5L9.5-288C9.4-288,9.3-287.9,9.2-287.9z"/>
			</g>
			<g>
				<path class="st1" d="M-20.1,15.4c-0.1,0-0.2,0-0.3-0.1c-0.1-0.1-0.1-0.4,0-0.5L155-160.6c0.1-0.1,0.4-0.1,0.5,0
					c0.1,0.1,0.1,0.4,0,0.5L-19.8,15.3C-19.9,15.4-20,15.4-20.1,15.4z"/>
			</g>
			<g class="st4">
				
					<radialGradient id="SVGID_6_" cx="-2268.0801" cy="7360.1455" r="54.7617" gradientTransform="matrix(1.0833 -1.0833 0.2411 0.2411 700.2096 -4358.0215)" gradientUnits="userSpaceOnUse">
					<stop  offset="0" style="stop-color:#CFCFCF"/>
					<stop  offset="0.4637" style="stop-color:#E7E7E7"/>
					<stop  offset="1" style="stop-color:#FFFFFF"/>
				</radialGradient>
				<path class="st5" d="M69.6-186.9c-13.2,2.8-39,21.2-65.1,47.2c-26.1,26.1-44.4,51.9-47.2,65.1L69.6-186.9z"/>
				
					<radialGradient id="SVGID_7_" cx="-2210.2776" cy="6840.2173" r="53.113" gradientTransform="matrix(1.0833 -1.0833 0.2411 0.2411 700.2096 -4358.0215)" gradientUnits="userSpaceOnUse">
					<stop  offset="0" style="stop-color:#CFCFCF"/>
					<stop  offset="0.4637" style="stop-color:#E7E7E7"/>
					<stop  offset="1" style="stop-color:#FFFFFF"/>
				</radialGradient>
				<path class="st6" d="M5.3-373.1c-12.8,2.7-37.9,20.5-63.1,45.8s-43.1,50.4-45.8,63.1L5.3-373.1z"/>
				
					<radialGradient id="SVGID_8_" cx="-2327.4187" cy="7137.1406" r="106.8759" gradientTransform="matrix(1.0833 -1.0833 0.2411 0.2411 700.2096 -4358.0215)" gradientUnits="userSpaceOnUse">
					<stop  offset="0" style="stop-color:#CFCFCF"/>
					<stop  offset="0.4637" style="stop-color:#E7E7E7"/>
					<stop  offset="1" style="stop-color:#FFFFFF"/>
				</radialGradient>
				<path class="st7" d="M1-233.9c-25.7,5.4-76.2,41.3-127,92.2c-50.9,50.9-86.8,101.3-92.2,127L1-233.9z"/>
				
					<radialGradient id="SVGID_9_" cx="-2165.531" cy="7551.6792" r="105.0616" gradientTransform="matrix(1.0833 -1.0833 0.2411 0.2411 700.2096 -4358.0215)" gradientUnits="userSpaceOnUse">
					<stop  offset="0" style="stop-color:#CFCFCF"/>
					<stop  offset="0.4637" style="stop-color:#E7E7E7"/>
					<stop  offset="1" style="stop-color:#FFFFFF"/>
				</radialGradient>
				<path class="st8" d="M274.6-307.3c-25.3,5.3-74.9,40.6-124.9,90.6c-50,50-85.3,99.6-90.6,124.9L274.6-307.3z"/>
				
					<radialGradient id="SVGID_10_" cx="-2353.9255" cy="6934.4766" r="75.7067" gradientTransform="matrix(1.0833 -1.0833 0.2411 0.2411 700.2096 -4358.0215)" gradientUnits="userSpaceOnUse">
					<stop  offset="0" style="stop-color:#CFCFCF"/>
					<stop  offset="0.4637" style="stop-color:#E7E7E7"/>
					<stop  offset="1" style="stop-color:#FFFFFF"/>
				</radialGradient>
				<path class="st9" d="M-106.2-219.6c-18.2,3.8-54,29.3-90,65.3c-36,36-61.5,71.8-65.3,90L-106.2-219.6z"/>
				
					<radialGradient id="SVGID_11_" cx="-2238.6545" cy="7671.6611" r="106.393" gradientTransform="matrix(1.0833 -1.0833 0.2411 0.2411 700.2096 -4358.0215)" gradientUnits="userSpaceOnUse">
					<stop  offset="0" style="stop-color:#CFCFCF"/>
					<stop  offset="0.4637" style="stop-color:#E7E7E7"/>
					<stop  offset="1" style="stop-color:#FFFFFF"/>
				</radialGradient>
				<path class="st10" d="M225.5-200.6c-25.6,5.4-75.8,41.1-126.5,91.7C48.4-58.3,12.7-8,7.3,17.6L225.5-200.6z"/>
			</g>
		</g>
		<g class="st0">
			
				<image style="overflow:visible;" width="1322" height="1339" xlink:href="DB4CB1514AD90135.png"  transform="matrix(0.24 0 0 0.24 -191.6586 -359.6002)">
			</image>
		</g>
	</g>
	<g>
		<g class="st11">
			
				<image style="overflow:visible;" width="651" height="434" xlink:href="DB4CB1514AD90137.png"  transform="matrix(0.24 0 0 0.24 -112.4586 -234.3202)">
			</image>
		</g>
		<path class="st1" d="M46.6-232.3v73h-125v-73H46.6 M47.1-232.8h-126v74h126V-232.8L47.1-232.8z"/>
		<g>
			<path class="st1" d="M-55.6-201.6l-3,6H-60l-2.9-6v6.9h-2.4v-10.9h3.3l2.8,6l2.8-6h3.3v10.9h-2.4V-201.6z"/>
			<path class="st1" d="M-40.5-196.3c-1.1,1.1-2.5,1.6-4.1,1.6c-1.6,0-3-0.5-4.1-1.6c-1.1-1.1-1.7-2.4-1.7-4c0-1.6,0.6-2.9,1.7-4
				c1.1-1.1,2.5-1.6,4.1-1.6c1.6,0,3,0.5,4.1,1.6c1.1,1.1,1.7,2.4,1.7,4C-38.9-198.7-39.4-197.4-40.5-196.3z M-41.4-200.3
				c0-1-0.3-1.8-0.9-2.5c-0.6-0.7-1.4-1-2.3-1c-0.9,0-1.7,0.3-2.3,1c-0.6,0.7-0.9,1.5-0.9,2.5c0,1,0.3,1.8,0.9,2.5
				c0.6,0.7,1.4,1,2.3,1c0.9,0,1.7-0.3,2.3-1C-41.7-198.5-41.4-199.3-41.4-200.3z"/>
			<path class="st1" d="M-27.7-204.3c1,1,1.6,2.3,1.6,4c0,1.7-0.5,3-1.5,4c-1,1-2.6,1.5-4.6,1.5H-36v-10.9h3.9
				C-30.2-205.7-28.8-205.2-27.7-204.3z M-29.5-197.8c0.6-0.6,0.9-1.4,0.9-2.5c0-1.1-0.3-1.9-0.9-2.5c-0.6-0.6-1.5-0.9-2.8-0.9h-1.4
				v6.6h1.5C-31-196.9-30.1-197.2-29.5-197.8z"/>
			<path class="st1" d="M-15.4-205.7v2.2h-5.4v2.2h4.9v2.1h-4.9v2.3h5.6v2.2h-8v-10.9H-15.4z"/>
			<path class="st1" d="M-3.4-202.1c0,1.7-0.7,2.9-2.1,3.4l2.8,3.9h-3l-2.4-3.5h-1.7v3.5h-2.4v-10.9h4.1c1.7,0,2.9,0.3,3.6,0.9
				C-3.8-204.3-3.4-203.3-3.4-202.1z M-6.4-200.8c0.3-0.3,0.5-0.7,0.5-1.3c0-0.6-0.2-1-0.5-1.2c-0.3-0.2-0.9-0.3-1.6-0.3h-1.8v3.2
				h1.8C-7.2-200.4-6.7-200.5-6.4-200.8z"/>
			<path class="st1" d="M7.5-205.7h2.4v10.9H7.5l-5.2-6.8v6.8h-2.4v-10.9h2.3l5.4,7V-205.7z"/>
		</g>
		<g>
			<path class="st1" d="M-63.5-185.6c0.5,0,0.8-0.2,1.1-0.5l0.6,0.6c-0.5,0.5-1,0.8-1.7,0.8c-0.6,0-1.2-0.2-1.6-0.6
				c-0.4-0.4-0.6-0.9-0.6-1.5c0-0.6,0.2-1.1,0.6-1.5c0.4-0.4,0.9-0.6,1.5-0.6c0.7,0,1.2,0.3,1.7,0.8l-0.6,0.6
				c-0.3-0.4-0.7-0.5-1.1-0.5c-0.3,0-0.6,0.1-0.9,0.3c-0.2,0.2-0.4,0.5-0.4,0.9c0,0.4,0.1,0.7,0.3,0.9
				C-64.1-185.7-63.8-185.6-63.5-185.6z"/>
			<path class="st1" d="M-56.5-185.3c-0.4,0.4-0.9,0.6-1.5,0.6c-0.6,0-1.1-0.2-1.5-0.6c-0.4-0.4-0.6-0.9-0.6-1.5
				c0-0.6,0.2-1.1,0.6-1.5c0.4-0.4,0.9-0.6,1.5-0.6c0.6,0,1.1,0.2,1.5,0.6c0.4,0.4,0.6,0.9,0.6,1.5
				C-55.8-186.2-56.1-185.7-56.5-185.3z M-56.8-186.8c0-0.4-0.1-0.7-0.4-0.9c-0.2-0.3-0.5-0.4-0.9-0.4c-0.3,0-0.6,0.1-0.9,0.4
				c-0.2,0.3-0.4,0.6-0.4,0.9c0,0.4,0.1,0.7,0.4,0.9c0.2,0.3,0.5,0.4,0.9,0.4c0.3,0,0.6-0.1,0.9-0.4
				C-56.9-186.2-56.8-186.5-56.8-186.8z"/>
			<path class="st1" d="M-53.9-184.8v-4.1h0.9v3.3h1.8v0.8H-53.9z"/>
			<path class="st1" d="M-46-185.3c-0.4,0.4-0.9,0.6-1.5,0.6c-0.6,0-1.1-0.2-1.5-0.6c-0.4-0.4-0.6-0.9-0.6-1.5
				c0-0.6,0.2-1.1,0.6-1.5c0.4-0.4,0.9-0.6,1.5-0.6c0.6,0,1.1,0.2,1.5,0.6c0.4,0.4,0.6,0.9,0.6,1.5C-45.4-186.2-45.6-185.7-46-185.3
				z M-46.3-186.8c0-0.4-0.1-0.7-0.4-0.9c-0.2-0.3-0.5-0.4-0.9-0.4s-0.6,0.1-0.9,0.4c-0.2,0.3-0.4,0.6-0.4,0.9
				c0,0.4,0.1,0.7,0.4,0.9c0.2,0.3,0.5,0.4,0.9,0.4s0.6-0.1,0.9-0.4C-46.4-186.2-46.3-186.5-46.3-186.8z"/>
			<path class="st1" d="M-40.1-187.5c0,0.7-0.3,1.1-0.8,1.3l1,1.5h-1.1l-0.9-1.3h-0.6v1.3h-0.9v-4.1h1.6c0.6,0,1.1,0.1,1.4,0.3
				C-40.2-188.3-40.1-188-40.1-187.5z M-41.2-187c0.1-0.1,0.2-0.3,0.2-0.5c0-0.2-0.1-0.4-0.2-0.5c-0.1-0.1-0.3-0.1-0.6-0.1h-0.7v1.2
				h0.7C-41.5-186.9-41.3-186.9-41.2-187z"/>
			<path class="st1" d="M-37-188.1c-0.1,0.1-0.1,0.2-0.1,0.3s0.1,0.2,0.2,0.3c0.1,0.1,0.4,0.2,0.8,0.3c0.4,0.1,0.7,0.2,0.9,0.4
				c0.2,0.2,0.3,0.5,0.3,0.8c0,0.4-0.1,0.7-0.4,0.9c-0.3,0.2-0.6,0.3-1.1,0.3c-0.7,0-1.2-0.2-1.8-0.7l0.5-0.7
				c0.4,0.4,0.9,0.6,1.2,0.6c0.2,0,0.3,0,0.4-0.1c0.1-0.1,0.1-0.2,0.1-0.3s-0.1-0.2-0.2-0.3c-0.1-0.1-0.3-0.1-0.6-0.2
				c-0.5-0.1-0.8-0.3-1.1-0.4c-0.2-0.2-0.3-0.5-0.3-0.9c0-0.4,0.1-0.7,0.4-0.9c0.3-0.2,0.6-0.3,1.1-0.3c0.3,0,0.6,0,0.8,0.1
				c0.3,0.1,0.5,0.2,0.7,0.4l-0.5,0.7c-0.4-0.3-0.7-0.4-1.1-0.4C-36.8-188.2-36.9-188.1-37-188.1z"/>
			<path class="st1" d="M-28.4-184.8h-1.8v-4.1h1.6c0.3,0,0.5,0,0.7,0.1c0.2,0.1,0.4,0.2,0.5,0.3c0.2,0.2,0.3,0.5,0.3,0.7
				c0,0.3-0.1,0.6-0.3,0.7c-0.1,0.1-0.1,0.1-0.1,0.1c0,0-0.1,0-0.1,0.1c0.3,0.1,0.5,0.2,0.6,0.3c0.2,0.2,0.2,0.4,0.2,0.7
				c0,0.3-0.1,0.5-0.3,0.8C-27.5-184.9-27.9-184.8-28.4-184.8z M-29.3-187.2h0.4c0.3,0,0.4,0,0.6-0.1c0.1-0.1,0.2-0.2,0.2-0.4
				c0-0.2-0.1-0.3-0.2-0.4c-0.1-0.1-0.3-0.1-0.6-0.1h-0.4V-187.2z M-29.3-185.5h0.6c0.3,0,0.5,0,0.6-0.1c0.1-0.1,0.2-0.2,0.2-0.4
				s-0.1-0.3-0.2-0.4c-0.1-0.1-0.4-0.1-0.7-0.1h-0.5V-185.5z"/>
			<path class="st1" d="M-22.1-184.8l-0.4-0.9h-1.7l-0.4,0.9h-1l1.8-4.1h0.9l1.8,4.1H-22.1z M-23.3-187.7l-0.5,1.2h1L-23.3-187.7z"
				/>
			<path class="st1" d="M-17.6-185.6c0.5,0,0.8-0.2,1.1-0.5l0.6,0.6c-0.5,0.5-1,0.8-1.7,0.8c-0.6,0-1.2-0.2-1.6-0.6
				c-0.4-0.4-0.6-0.9-0.6-1.5c0-0.6,0.2-1.1,0.6-1.5c0.4-0.4,0.9-0.6,1.5-0.6c0.7,0,1.2,0.3,1.7,0.8l-0.6,0.6
				c-0.3-0.4-0.7-0.5-1.1-0.5c-0.3,0-0.6,0.1-0.9,0.3c-0.2,0.2-0.4,0.5-0.4,0.9c0,0.4,0.1,0.7,0.3,0.9
				C-18.2-185.7-17.9-185.6-17.6-185.6z"/>
			<path class="st1" d="M-14-188.9h0.9v1.7l1.6-1.7h1.1l-1.6,1.8c0.1,0.2,0.4,0.6,0.8,1.1c0.4,0.5,0.7,0.9,0.9,1.2h-1.1l-1.2-1.6
				l-0.4,0.5v1.2H-14V-188.9z"/>
			<path class="st1" d="M-5.9-186.9H-5v1.5c-0.4,0.5-1,0.7-1.7,0.7c-0.6,0-1.1-0.2-1.5-0.6c-0.4-0.4-0.6-0.9-0.6-1.5
				c0-0.6,0.2-1.1,0.6-1.5c0.4-0.4,0.9-0.6,1.5-0.6c0.6,0,1.1,0.2,1.5,0.6l-0.5,0.7c-0.2-0.2-0.4-0.3-0.5-0.3
				c-0.2-0.1-0.3-0.1-0.5-0.1c-0.4,0-0.6,0.1-0.9,0.4c-0.2,0.2-0.4,0.6-0.4,0.9c0,0.4,0.1,0.7,0.3,0.9c0.2,0.2,0.5,0.4,0.8,0.4
				c0.3,0,0.6-0.1,0.8-0.2V-186.9z"/>
			<path class="st1" d="M0.4-187.5c0,0.7-0.3,1.1-0.8,1.3l1,1.5h-1.1l-0.9-1.3h-0.6v1.3H-3v-4.1h1.6c0.6,0,1.1,0.1,1.4,0.3
				C0.2-188.3,0.4-188,0.4-187.5z M-0.7-187c0.1-0.1,0.2-0.3,0.2-0.5c0-0.2-0.1-0.4-0.2-0.5c-0.1-0.1-0.3-0.1-0.6-0.1h-0.7v1.2h0.7
				C-1.1-186.9-0.9-186.9-0.7-187z"/>
			<path class="st1" d="M5.9-185.3c-0.4,0.4-0.9,0.6-1.5,0.6c-0.6,0-1.1-0.2-1.5-0.6c-0.4-0.4-0.6-0.9-0.6-1.5
				c0-0.6,0.2-1.1,0.6-1.5c0.4-0.4,0.9-0.6,1.5-0.6c0.6,0,1.1,0.2,1.5,0.6c0.4,0.4,0.6,0.9,0.6,1.5C6.6-186.2,6.3-185.7,5.9-185.3z
				 M5.6-186.8c0-0.4-0.1-0.7-0.4-0.9c-0.2-0.3-0.5-0.4-0.9-0.4c-0.3,0-0.6,0.1-0.9,0.4c-0.2,0.3-0.4,0.6-0.4,0.9
				c0,0.4,0.1,0.7,0.4,0.9c0.2,0.3,0.5,0.4,0.9,0.4c0.3,0,0.6-0.1,0.9-0.4C5.5-186.2,5.6-186.5,5.6-186.8z"/>
			<path class="st1" d="M9.6-185.8c0.2,0.2,0.4,0.3,0.6,0.3c0.3,0,0.5-0.1,0.6-0.3c0.2-0.2,0.2-0.5,0.2-0.8v-2.3H12v2.3
				c0,0.6-0.2,1.1-0.5,1.4s-0.8,0.5-1.3,0.5c-0.5,0-0.9-0.2-1.3-0.5c-0.3-0.3-0.5-0.8-0.5-1.4v-2.3h0.9v2.3
				C9.4-186.3,9.5-186,9.6-185.8z"/>
			<path class="st1" d="M17-188.9h0.9v4.1H17l-2-2.6v2.6h-0.9v-4.1H15l2,2.7V-188.9z"/>
			<path class="st1" d="M23.3-188.3c0.4,0.4,0.6,0.9,0.6,1.5s-0.2,1.1-0.6,1.5c-0.4,0.4-1,0.6-1.8,0.6h-1.4v-4.1h1.5
				C22.3-188.9,22.9-188.7,23.3-188.3z M22.6-185.9c0.2-0.2,0.3-0.5,0.3-0.9s-0.1-0.7-0.3-0.9c-0.2-0.2-0.6-0.3-1-0.3h-0.5v2.5h0.6
				C22.1-185.6,22.4-185.7,22.6-185.9z"/>
		</g>
	</g>
	<g>
		<path class="st1" d="M-232.8-128h-3.8v-0.9h3.1v-1.6h0.8V-128z"/>
		<path class="st1" d="M-233.3-135.3c0.4,0.4,0.6,0.9,0.6,1.4c0,0.6-0.2,1-0.6,1.4c-0.4,0.4-0.8,0.6-1.4,0.6s-1-0.2-1.4-0.6
			c-0.4-0.4-0.6-0.9-0.6-1.4c0-0.6,0.2-1,0.6-1.4c0.4-0.4,0.8-0.6,1.4-0.6S-233.7-135.7-233.3-135.3z M-234.7-135
			c-0.3,0-0.6,0.1-0.9,0.3c-0.2,0.2-0.4,0.5-0.4,0.8c0,0.3,0.1,0.6,0.4,0.8c0.2,0.2,0.5,0.3,0.9,0.3c0.3,0,0.6-0.1,0.9-0.3
			c0.2-0.2,0.4-0.5,0.4-0.8c0-0.3-0.1-0.6-0.4-0.8C-234.1-134.9-234.4-135-234.7-135z"/>
		<path class="st1" d="M-235.3-140.8c0.6,0,1,0.2,1.2,0.7l1.4-1v1l-1.2,0.8v0.6h1.2v0.9h-3.8v-1.4c0-0.6,0.1-1,0.3-1.3
			C-236.1-140.7-235.8-140.8-235.3-140.8z M-234.9-139.8c-0.1-0.1-0.2-0.2-0.5-0.2c-0.2,0-0.3,0.1-0.4,0.2c-0.1,0.1-0.1,0.3-0.1,0.6
			v0.6h1.1v-0.6C-234.7-139.5-234.8-139.7-234.9-139.8z"/>
		<path class="st1" d="M-236.6-145.5h0.8v1.9h0.8v-1.7h0.7v1.7h0.8v-2h0.8v2.8h-3.8V-145.5z"/>
		<path class="st1" d="M-235.2-150.8l2.1,1v0.5l-2.1,1h2.4v0.9h-3.8v-1.2l2.1-1l-2.1-1v-1.1h3.8v0.9H-235.2z"/>
		<path class="st1" d="M-236.6-156.2v-0.9h3.8v0.9H-236.6z"/>
		<path class="st1" d="M-236.3-161.8c0.2-0.3,0.6-0.4,1-0.4c0.5,0,0.8,0.1,1,0.4c0.2,0.3,0.3,0.7,0.3,1.3v0.5h1.1v0.9h-3.8v-1.3
			C-236.6-161.1-236.5-161.5-236.3-161.8z M-234.8-161.1c-0.1-0.1-0.3-0.2-0.5-0.2c-0.2,0-0.4,0.1-0.5,0.2c-0.1,0.1-0.1,0.3-0.1,0.6
			v0.5h1.3v-0.6C-234.6-160.8-234.6-161-234.8-161.1z"/>
		<path class="st1" d="M-235.8-164.8c0.1,0.1,0.2,0.1,0.3,0.1c0.1,0,0.2-0.1,0.3-0.1c0.1-0.1,0.1-0.3,0.2-0.7
			c0.1-0.4,0.2-0.6,0.4-0.8c0.2-0.2,0.4-0.3,0.8-0.3s0.6,0.1,0.8,0.4c0.2,0.3,0.3,0.6,0.3,1c0,0.6-0.2,1.1-0.7,1.6l-0.6-0.5
			c0.4-0.4,0.5-0.8,0.5-1.1c0-0.2,0-0.3-0.1-0.4c-0.1-0.1-0.2-0.1-0.3-0.1c-0.1,0-0.2,0-0.3,0.1c-0.1,0.1-0.1,0.3-0.2,0.6
			c-0.1,0.4-0.2,0.8-0.4,1c-0.2,0.2-0.4,0.3-0.8,0.3s-0.6-0.1-0.8-0.4c-0.2-0.3-0.3-0.6-0.3-1c0-0.3,0-0.5,0.1-0.8
			c0.1-0.3,0.2-0.5,0.4-0.7l0.6,0.4c-0.3,0.3-0.4,0.7-0.4,1C-235.9-165-235.9-164.9-235.8-164.8z"/>
		<path class="st1" d="M-233.8-169.5c0.2-0.1,0.3-0.3,0.3-0.6c0-0.2-0.1-0.4-0.3-0.6c-0.2-0.1-0.4-0.2-0.7-0.2h-2.1v-0.9h2.1
			c0.6,0,1,0.2,1.3,0.5c0.3,0.3,0.4,0.7,0.4,1.2c0,0.5-0.1,0.9-0.4,1.2c-0.3,0.3-0.7,0.5-1.3,0.5h-2.1v-0.9h2.1
			C-234.2-169.3-233.9-169.3-233.8-169.5z"/>
		<path class="st1" d="M-235.2-177.1l2.1,1v0.5l-2.1,1h2.4v0.9h-3.8v-1.2l2.1-1l-2.1-1v-1.1h3.8v0.9H-235.2z"/>
		<path class="st1" d="M-236.1-185.4c0.3-0.4,0.8-0.5,1.4-0.5c0.6,0,1.1,0.2,1.4,0.5c0.3,0.4,0.5,0.9,0.5,1.6v1.3h-3.8v-1.3
			C-236.6-184.5-236.4-185-236.1-185.4z M-233.8-184.8c-0.2-0.2-0.5-0.3-0.9-0.3c-0.4,0-0.7,0.1-0.9,0.3c-0.2,0.2-0.3,0.5-0.3,1v0.5
			h2.3v-0.5C-233.5-184.3-233.6-184.6-233.8-184.8z"/>
		<path class="st1" d="M-233.3-191c0.4,0.4,0.6,0.9,0.6,1.4c0,0.6-0.2,1-0.6,1.4c-0.4,0.4-0.8,0.6-1.4,0.6s-1-0.2-1.4-0.6
			c-0.4-0.4-0.6-0.9-0.6-1.4c0-0.6,0.2-1,0.6-1.4c0.4-0.4,0.8-0.6,1.4-0.6S-233.7-191.4-233.3-191z M-234.7-190.7
			c-0.3,0-0.6,0.1-0.9,0.3c-0.2,0.2-0.4,0.5-0.4,0.8c0,0.3,0.1,0.6,0.4,0.8c0.2,0.2,0.5,0.3,0.9,0.3c0.3,0,0.6-0.1,0.9-0.3
			c0.2-0.2,0.4-0.5,0.4-0.8c0-0.3-0.1-0.6-0.4-0.8C-234.1-190.6-234.4-190.7-234.7-190.7z"/>
		<path class="st1" d="M-232.8-193.4h-3.8v-0.9h3.1v-1.6h0.8V-193.4z"/>
		<path class="st1" d="M-233.3-200.7c0.4,0.4,0.6,0.9,0.6,1.4c0,0.6-0.2,1-0.6,1.4c-0.4,0.4-0.8,0.6-1.4,0.6s-1-0.2-1.4-0.6
			c-0.4-0.4-0.6-0.9-0.6-1.4c0-0.6,0.2-1,0.6-1.4c0.4-0.4,0.8-0.6,1.4-0.6S-233.7-201.1-233.3-200.7z M-234.7-200.4
			c-0.3,0-0.6,0.1-0.9,0.3c-0.2,0.2-0.4,0.5-0.4,0.8c0,0.3,0.1,0.6,0.4,0.8c0.2,0.2,0.5,0.3,0.9,0.3c0.3,0,0.6-0.1,0.9-0.3
			c0.2-0.2,0.4-0.5,0.4-0.8c0-0.3-0.1-0.6-0.4-0.8C-234.1-200.3-234.4-200.4-234.7-200.4z"/>
		<path class="st1" d="M-235.3-206.2c0.6,0,1,0.2,1.2,0.7l1.4-1v1l-1.2,0.8v0.6h1.2v0.9h-3.8v-1.4c0-0.6,0.1-1,0.3-1.3
			C-236.1-206-235.8-206.2-235.3-206.2z M-234.9-205.1c-0.1-0.1-0.2-0.2-0.5-0.2c-0.2,0-0.3,0.1-0.4,0.2c-0.1,0.1-0.1,0.3-0.1,0.6
			v0.6h1.1v-0.6C-234.7-204.8-234.8-205-234.9-205.1z"/>
		<path class="st1" d="M-235.8-211.5c0.1,0.1,0.2,0.1,0.3,0.1c0.1,0,0.2-0.1,0.3-0.1c0.1-0.1,0.1-0.3,0.2-0.7
			c0.1-0.4,0.2-0.6,0.4-0.8c0.2-0.2,0.4-0.3,0.8-0.3s0.6,0.1,0.8,0.4c0.2,0.3,0.3,0.6,0.3,1c0,0.6-0.2,1.1-0.7,1.6l-0.6-0.5
			c0.4-0.4,0.5-0.8,0.5-1.1c0-0.2,0-0.3-0.1-0.4c-0.1-0.1-0.2-0.1-0.3-0.1c-0.1,0-0.2,0-0.3,0.1c-0.1,0.1-0.1,0.3-0.2,0.6
			c-0.1,0.4-0.2,0.8-0.4,1c-0.2,0.2-0.4,0.3-0.8,0.3s-0.6-0.1-0.8-0.4c-0.2-0.3-0.3-0.6-0.3-1c0-0.3,0-0.5,0.1-0.8
			c0.1-0.3,0.2-0.5,0.4-0.7l0.6,0.4c-0.3,0.3-0.4,0.7-0.4,1C-235.9-211.7-235.9-211.6-235.8-211.5z"/>
		<path class="st1" d="M-236.6-215.2v-0.9h3.8v0.9H-236.6z"/>
		<path class="st1" d="M-235.9-219.7h3.1v0.9h-3.1v1.1h-0.7v-3h0.7V-219.7z"/>
		<path class="st1" d="M-232.8-227.8l-0.8,0.4v1.6l0.8,0.4v0.9l-3.8-1.6v-0.8l3.8-1.6V-227.8z M-235.5-226.6l1.1,0.5v-1
			L-235.5-226.6z"/>
		<path class="st1" d="M-235.2-233.6l2.1,1v0.5l-2.1,1h2.4v0.9h-3.8v-1.2l2.1-1l-2.1-1v-1.1h3.8v0.9H-235.2z"/>
		<path class="st1" d="M-236.6-239.2h0.8v1.9h0.8v-1.7h0.7v1.7h0.8v-2h0.8v2.8h-3.8V-239.2z"/>
		<path class="st1" d="M-235.9-242.8h3.1v0.9h-3.1v1.1h-0.7v-3h0.7V-242.8z"/>
	</g>
	<g>
		<g>
			<path class="st1" d="M190.1-79.4c0.3-0.2,0.6-0.3,0.9-0.3c0.4,0,0.7,0.1,0.9,0.3c0.3,0.2,0.4,0.4,0.4,0.7s-0.1,0.5-0.3,0.8
				c0.3,0.2,0.5,0.6,0.5,1c0,0.3-0.1,0.6-0.4,0.8c-0.3,0.2-0.6,0.3-1.1,0.3c-0.4,0-0.8-0.1-1.1-0.3c-0.3-0.2-0.4-0.5-0.4-0.8
				c0-0.4,0.2-0.7,0.5-1c-0.2-0.2-0.3-0.5-0.3-0.8C189.7-78.9,189.8-79.2,190.1-79.4z M190.6-76.5c0.1,0.1,0.3,0.1,0.4,0.1
				c0.1,0,0.3,0,0.4-0.1c0.1-0.1,0.2-0.2,0.2-0.4c0-0.2-0.1-0.3-0.2-0.4c-0.1-0.1-0.3-0.1-0.4-0.1c-0.2,0-0.3,0-0.4,0.1
				c-0.1,0.1-0.2,0.2-0.2,0.4C190.4-76.8,190.5-76.6,190.6-76.5z M190.6-78.2c0.1,0.1,0.2,0.1,0.4,0.1c0.1,0,0.3,0,0.4-0.1
				c0.1-0.1,0.2-0.2,0.2-0.3c0-0.1-0.1-0.2-0.2-0.3c-0.1-0.1-0.2-0.1-0.4-0.1c-0.1,0-0.3,0-0.4,0.1c-0.1,0.1-0.2,0.2-0.2,0.3
				C190.5-78.4,190.5-78.3,190.6-78.2z"/>
			<path class="st1" d="M195.6-77.4v-0.7h0.8v0.7h0.4v0.7h-0.4v0.9h-0.8v-0.9H194v-0.6l1.4-2.3h0.9l-1.3,2.2H195.6z"/>
			<path class="st1" d="M200.9-79.6v0.7h-1.5v0.6c0.1,0,0.2,0,0.4,0c0.4,0,0.7,0.1,0.9,0.3c0.3,0.2,0.4,0.5,0.4,0.9
				c0,0.4-0.1,0.7-0.4,0.9c-0.3,0.2-0.6,0.4-1,0.4c-0.5,0-0.9-0.2-1.3-0.6l0.4-0.6c0,0,0.1,0.1,0.1,0.1c0.1,0,0.2,0.1,0.3,0.2
				c0.1,0.1,0.3,0.1,0.4,0.1c0.1,0,0.3,0,0.4-0.1c0.1-0.1,0.2-0.2,0.2-0.4s-0.1-0.3-0.2-0.4c-0.1-0.1-0.3-0.1-0.5-0.1
				c-0.2,0-0.4,0.1-0.7,0.2l-0.4-0.4v-1.9H200.9z"/>
		</g>
		<g>
			<path class="st1" d="M151.3-67.5v-3.8h0.9v3.1h1.6v0.8H151.3z"/>
			<path class="st1" d="M158.6-68c-0.4,0.4-0.9,0.6-1.4,0.6c-0.6,0-1-0.2-1.4-0.6c-0.4-0.4-0.6-0.8-0.6-1.4c0-0.6,0.2-1,0.6-1.4
				c0.4-0.4,0.9-0.6,1.4-0.6c0.6,0,1,0.2,1.4,0.6c0.4,0.4,0.6,0.8,0.6,1.4C159.2-68.9,159-68.4,158.6-68z M158.3-69.4
				c0-0.3-0.1-0.6-0.3-0.9c-0.2-0.2-0.5-0.4-0.8-0.4c-0.3,0-0.6,0.1-0.8,0.4c-0.2,0.2-0.3,0.5-0.3,0.9c0,0.3,0.1,0.6,0.3,0.9
				c0.2,0.2,0.5,0.4,0.8,0.4c0.3,0,0.6-0.1,0.8-0.4C158.2-68.8,158.3-69.1,158.3-69.4z"/>
			<path class="st1" d="M164.1-70c0,0.6-0.2,1-0.7,1.2l1,1.4h-1l-0.8-1.2h-0.6v1.2H161v-3.8h1.4c0.6,0,1,0.1,1.3,0.3
				C163.9-70.8,164.1-70.5,164.1-70z M163-69.6c0.1-0.1,0.2-0.2,0.2-0.5c0-0.2-0.1-0.3-0.2-0.4c-0.1-0.1-0.3-0.1-0.6-0.1h-0.6v1.1
				h0.6C162.7-69.4,162.9-69.5,163-69.6z"/>
			<path class="st1" d="M168.8-71.3v0.8h-1.9v0.8h1.7v0.7h-1.7v0.8h2v0.8H166v-3.8H168.8z"/>
			<path class="st1" d="M174.1-69.9l-1,2.1h-0.5l-1-2.1v2.4h-0.9v-3.8h1.2l1,2.1l1-2.1h1.1v3.8h-0.9V-69.9z"/>
			<path class="st1" d="M179.5-71.3h0.9v3.8h-0.9V-71.3z"/>
			<path class="st1" d="M185-71c0.3,0.2,0.4,0.6,0.4,1c0,0.5-0.1,0.8-0.4,1c-0.3,0.2-0.7,0.3-1.3,0.3h-0.5v1.1h-0.9v-3.8h1.3
				C184.3-71.3,184.7-71.2,185-71z M184.4-69.5c0.1-0.1,0.2-0.3,0.2-0.5c0-0.2-0.1-0.4-0.2-0.5c-0.1-0.1-0.3-0.1-0.6-0.1h-0.5v1.3
				h0.6C184.1-69.3,184.3-69.3,184.4-69.5z"/>
			<path class="st1" d="M188.1-70.5c-0.1,0.1-0.1,0.2-0.1,0.3c0,0.1,0.1,0.2,0.1,0.3c0.1,0.1,0.3,0.1,0.7,0.2
				c0.4,0.1,0.6,0.2,0.8,0.4c0.2,0.2,0.3,0.4,0.3,0.8c0,0.3-0.1,0.6-0.4,0.8c-0.3,0.2-0.6,0.3-1,0.3c-0.6,0-1.1-0.2-1.6-0.7l0.5-0.6
				c0.4,0.4,0.8,0.5,1.1,0.5c0.2,0,0.3,0,0.4-0.1c0.1-0.1,0.1-0.2,0.1-0.3c0-0.1,0-0.2-0.1-0.3c-0.1-0.1-0.3-0.1-0.6-0.2
				c-0.4-0.1-0.8-0.2-1-0.4c-0.2-0.2-0.3-0.4-0.3-0.8c0-0.4,0.1-0.6,0.4-0.8c0.3-0.2,0.6-0.3,1-0.3c0.3,0,0.5,0,0.8,0.1
				c0.3,0.1,0.5,0.2,0.7,0.4l-0.4,0.6c-0.3-0.3-0.7-0.4-1-0.4C188.3-70.6,188.1-70.6,188.1-70.5z"/>
			<path class="st1" d="M192.8-68.5c0.1,0.2,0.3,0.3,0.6,0.3c0.2,0,0.4-0.1,0.6-0.3c0.1-0.2,0.2-0.4,0.2-0.7v-2.1h0.9v2.1
				c0,0.6-0.2,1-0.5,1.3c-0.3,0.3-0.7,0.4-1.2,0.4c-0.5,0-0.9-0.1-1.2-0.4c-0.3-0.3-0.5-0.7-0.5-1.3v-2.1h0.9v2.1
				C192.5-68.9,192.6-68.6,192.8-68.5z"/>
			<path class="st1" d="M200.3-69.9l-1,2.1h-0.5l-1-2.1v2.4h-0.9v-3.8h1.2l1,2.1l1-2.1h1.1v3.8h-0.9V-69.9z"/>
		</g>
	</g>
	<g>
		<path class="st1" d="M-221.7-318.8l-1.3,2.7h-0.7l-1.3-2.7v3.1h-1.1v-5h1.5l1.3,2.7l1.3-2.7h1.5v5h-1.1V-318.8z"/>
		<path class="st1" d="M-217.1-320.7h1.1v5h-1.1V-320.7z"/>
		<path class="st1" d="M-209-320.7h1.1v5h-1.1l-2.4-3.1v3.1h-1.1v-5h1l2.4,3.2V-320.7z"/>
		<path class="st1" d="M-204.4-320.7h1.1v5h-1.1V-320.7z"/>
		<path class="st1" d="M-195.3-318.8l-1.3,2.7h-0.7l-1.3-2.7v3.1h-1.1v-5h1.5l1.3,2.7l1.3-2.7h1.5v5h-1.1V-318.8z"/>
		<path class="st1" d="M-187.1-315.7l-0.5-1.1h-2.1l-0.5,1.1h-1.2l2.1-5h1.1l2.1,5H-187.1z M-188.6-319.2l-0.6,1.4h1.2L-188.6-319.2
			z"/>
		<path class="st1" d="M-183.1-315.7v-5h1.1v4h2.1v1H-183.1z"/>
		<path class="st1" d="M-222.7-309.3c0.3,0.3,0.5,0.8,0.5,1.4c0,0.6-0.2,1.1-0.5,1.3c-0.4,0.3-0.9,0.4-1.6,0.4h-0.7v1.4h-1.1v-5h1.8
			C-223.6-309.8-223-309.6-222.7-309.3z M-223.5-307.4c0.1-0.1,0.2-0.4,0.2-0.7c0-0.3-0.1-0.5-0.3-0.6c-0.2-0.1-0.4-0.2-0.8-0.2
			h-0.6v1.7h0.7C-223.9-307.1-223.6-307.2-223.5-307.4z"/>
		<path class="st1" d="M-214.8-305.5c-0.5,0.5-1.1,0.7-1.9,0.7c-0.7,0-1.4-0.2-1.9-0.7c-0.5-0.5-0.8-1.1-0.8-1.8s0.3-1.3,0.8-1.8
			c0.5-0.5,1.1-0.7,1.9-0.7c0.7,0,1.4,0.2,1.9,0.7c0.5,0.5,0.8,1.1,0.8,1.8S-214.3-306-214.8-305.5z M-215.2-307.3
			c0-0.4-0.1-0.8-0.4-1.1c-0.3-0.3-0.6-0.5-1-0.5c-0.4,0-0.8,0.2-1,0.5c-0.3,0.3-0.4,0.7-0.4,1.1c0,0.4,0.1,0.8,0.4,1.1
			c0.3,0.3,0.6,0.5,1,0.5c0.4,0,0.8-0.2,1-0.5C-215.4-306.5-215.2-306.9-215.2-307.3z"/>
		<path class="st1" d="M-209.8-308.8c-0.1,0.1-0.2,0.2-0.2,0.3c0,0.1,0.1,0.3,0.2,0.3c0.1,0.1,0.4,0.2,0.9,0.3
			c0.5,0.1,0.8,0.3,1.1,0.5c0.3,0.2,0.4,0.6,0.4,1s-0.2,0.8-0.5,1.1c-0.3,0.3-0.8,0.4-1.3,0.4c-0.8,0-1.5-0.3-2.1-0.9l0.7-0.8
			c0.5,0.5,1,0.7,1.5,0.7c0.2,0,0.4,0,0.5-0.1c0.1-0.1,0.2-0.2,0.2-0.4c0-0.1-0.1-0.3-0.2-0.4c-0.1-0.1-0.4-0.2-0.7-0.3
			c-0.6-0.1-1-0.3-1.3-0.5c-0.3-0.2-0.4-0.6-0.4-1c0-0.5,0.2-0.8,0.5-1.1c0.3-0.3,0.8-0.4,1.3-0.4c0.3,0,0.7,0.1,1,0.2
			c0.3,0.1,0.6,0.3,0.9,0.5l-0.6,0.8c-0.4-0.3-0.9-0.5-1.3-0.5C-209.5-308.9-209.6-308.9-209.8-308.8z"/>
		<path class="st1" d="M-202-308.8v4h-1.1v-4h-1.4v-1h3.9v1H-202z"/>
		<path class="st1" d="M-194-309.8v1h-2.5v1h2.2v0.9h-2.2v1h2.6v1h-3.7v-5H-194z"/>
		<path class="st1" d="M-186.6-308.1c0,0.8-0.3,1.3-0.9,1.5l1.3,1.8h-1.4l-1.1-1.6h-0.8v1.6h-1.1v-5h1.9c0.8,0,1.3,0.1,1.7,0.4
			C-186.7-309.1-186.6-308.7-186.6-308.1z M-187.9-307.5c0.1-0.1,0.2-0.3,0.2-0.6c0-0.3-0.1-0.5-0.2-0.6c-0.1-0.1-0.4-0.1-0.7-0.1
			h-0.8v1.5h0.8C-188.3-307.3-188.1-307.4-187.9-307.5z"/>
	</g>
</g>
<g>
	<linearGradient id="SVGID_12_" gradientUnits="userSpaceOnUse" x1="-0.1465" y1="59.6869" x2="119.52" y2="59.6869">
		<stop  offset="0" style="stop-color:#FFFFFF;stop-opacity:0"/>
		<stop  offset="1" style="stop-color:#FFFFFF"/>
	</linearGradient>
	<path class="st12" d="M0.4,119.5c-0.1,0-0.3,0-0.4-0.1c-0.2-0.2-0.2-0.5,0-0.7L118.7,0c0.2-0.2,0.5-0.2,0.7,0
		c0.2,0.2,0.2,0.5,0,0.7L0.7,119.4C0.6,119.5,0.5,119.5,0.4,119.5z"/>
</g>
</svg>
